<svg width="274" height="46" viewBox="0 0 274 46" fill="none" xmlns="http://www.w3.org/2000/svg">
<path d="M120.654 8.59426C120.458 8.55439 120.261 8.53446 120.065 8.53446C118.619 8.53446 117.366 9.56726 117.087 10.9896L111.838 37.711C111.591 38.6039 110.768 39.2307 109.836 39.2307C108.906 39.2307 108.082 38.6066 107.837 37.7241L102.586 10.9896C102.306 9.56726 101.054 8.53676 99.6072 8.53676C99.412 8.53676 99.2134 8.55439 99.0194 8.59426C97.3763 8.9163 96.301 10.5153 96.6241 12.1585L101.898 39.0011C101.902 39.0256 101.908 39.0478 101.913 39.067L101.92 39.0965C101.924 39.1203 101.928 39.1429 101.935 39.1667L101.961 39.2595C102.91 42.8187 106.149 45.3049 109.836 45.3049C113.521 45.3049 116.759 42.8237 117.708 39.2721L117.739 39.1648C117.744 39.1429 117.748 39.1226 117.752 39.0965L117.758 39.0766C117.764 39.0494 117.769 39.0256 117.775 39.0011L123.048 12.1585C123.372 10.5153 122.296 8.9163 120.654 8.59426Z" fill="white"/>
<path d="M20.8103 32.0369C20.8103 36.0032 17.5834 39.2312 13.6167 39.2312C9.6499 39.2312 6.42267 36.0032 6.42267 32.0369V21.805C6.42267 17.8379 9.6499 14.6111 13.6167 14.6111C17.5834 14.6111 20.8103 17.8379 20.8103 21.805V32.0369ZM13.6167 8.85548C11.0097 8.85548 8.49863 9.62875 6.35251 11.0898C6.30382 11.1231 6.24095 11.1273 6.18805 11.0986C6.13629 11.0714 6.10294 11.0173 6.10294 10.9575V3.66194C6.10294 2.16333 4.88343 0.943826 3.38559 0.943826C1.88699 0.943826 0.66748 2.16333 0.66748 3.66194V32.0369C0.66748 39.1764 6.47711 44.9849 13.6167 44.9849C20.7574 44.9849 26.5658 39.1764 26.5658 32.0369V21.8054C26.5658 14.6643 20.7574 8.85548 13.6167 8.85548Z" fill="white"/>
<path d="M133.95 21.8049C133.95 17.8381 137.177 14.6113 141.143 14.6113C145.111 14.6113 148.338 17.8381 148.338 21.8049V25.1621H133.95V21.8049ZM151.375 31.2374C153.049 31.2374 154.412 29.8741 154.412 28.1996V21.8053C154.412 14.489 148.459 8.53599 141.143 8.53599C133.827 8.53599 127.873 14.489 127.873 21.8053V32.036C127.873 35.4691 129.186 38.7281 131.566 41.2116C133.937 43.6851 137.12 45.1331 140.516 45.2899C140.62 45.2999 140.724 45.3049 140.823 45.3049H151.055C152.729 45.3049 154.092 43.9431 154.092 42.2678C154.092 40.5925 152.729 39.2311 151.055 39.2311H141.143C137.177 39.2311 133.95 36.0031 133.95 32.036V31.2374H151.375Z" fill="white"/>
<path d="M70.2483 21.805V42.2675C70.2483 43.7669 69.0307 44.9849 67.5309 44.9849C66.0331 44.9849 64.8136 43.7669 64.8136 42.2675V21.805C64.8136 14.6655 70.6232 8.85586 77.7628 8.85586C84.9023 8.85586 90.7123 14.6655 90.7123 21.805V42.2675C90.7123 43.7669 89.4924 44.9849 87.995 44.9849C86.4948 44.9849 85.2773 43.7669 85.2773 42.2675V21.805C85.2773 17.6619 81.9051 14.2917 77.7628 14.2917C73.6204 14.2917 70.2483 17.6619 70.2483 21.805Z" fill="white"/>
<path d="M180.794 21.8051V42.2676C180.794 43.9433 182.155 45.3047 183.831 45.3047C185.505 45.3047 186.868 43.9433 186.868 42.2676V21.8051C186.868 14.4892 180.915 8.53578 173.599 8.53578C166.282 8.53578 160.33 14.4892 160.33 21.8051V42.2676C160.33 43.9433 161.693 45.3047 163.367 45.3047C165.043 45.3047 166.404 43.9433 166.404 42.2676V21.8051C166.404 17.8383 169.633 14.6115 173.599 14.6115C177.567 14.6115 180.794 17.8383 180.794 21.8051Z" fill="white"/>
<path d="M215.715 8.53697C214.041 8.53697 212.678 9.90024 212.678 11.5744V32.0358C212.678 36.0041 209.451 39.2309 205.484 39.2309C201.517 39.2309 198.29 36.0041 198.29 32.0358V11.5744C198.29 9.90024 196.928 8.53697 195.252 8.53697C193.578 8.53697 192.215 9.90024 192.215 11.5744V32.0358C192.215 39.3544 198.167 45.3051 205.484 45.3051C212.8 45.3051 218.754 39.3544 218.754 32.0358V11.5744C218.754 9.90024 217.39 8.53697 215.715 8.53697Z" fill="white"/>
<path d="M237.558 28.6787C239.234 28.6787 240.595 27.3158 240.595 25.6416C240.595 23.9678 239.234 22.6041 237.558 22.6041H230.365V11.5741C230.365 9.90032 229.001 8.53667 227.326 8.53667C225.652 8.53667 224.289 9.90032 224.289 11.5741V32.0359C224.289 39.3548 230.242 45.3048 237.558 45.3048C239.234 45.3048 240.595 43.9442 240.595 42.2677C240.595 40.5935 239.234 39.2306 237.558 39.2306C233.591 39.2306 230.365 36.0038 230.365 32.0359V28.6787H237.558Z" fill="white"/>
<path d="M266.914 32.038C266.914 36.1807 263.543 39.5509 259.4 39.5509C255.256 39.5509 251.885 36.1807 251.885 32.038V21.8065C251.885 17.6615 255.256 14.2913 259.4 14.2913C263.543 14.2913 266.914 17.6615 266.914 21.8065V32.038ZM259.4 8.53687C252.083 8.53687 246.13 14.4903 246.13 21.8065V32.038C246.13 39.3543 252.083 45.3046 259.4 45.3046C266.716 45.3046 272.668 39.3543 272.668 32.038V21.8065C272.668 14.4903 266.716 8.53687 259.4 8.53687Z" fill="white"/>
<path d="M38.4973 22.1883C38.4973 18.2215 41.7242 14.9947 45.6898 14.9947C49.6581 14.9947 52.8849 18.2215 52.8849 22.1883V25.5455H38.4973V22.1883ZM38.3363 31.301H55.922C57.4194 31.301 58.639 30.0811 58.639 28.5829V22.1886C58.639 15.0487 52.8297 9.23909 45.6898 9.23909C38.5502 9.23909 32.7406 15.0487 32.7406 22.1886V32.4193C32.7406 35.7696 34.0199 38.9493 36.3447 41.373C38.6583 43.7871 41.7637 45.2006 45.0875 45.3547C45.1891 45.3643 45.2796 45.3685 45.37 45.3685H55.6019C57.0997 45.3685 58.3192 44.1501 58.3192 42.6512C58.3192 41.1526 57.0997 39.9342 55.6019 39.9342H45.6898C41.5474 39.9342 38.1776 36.5628 38.1776 32.4193V31.4609C38.1776 31.3727 38.2481 31.301 38.3363 31.301Z" fill="white"/>
<path d="M131.405 28.2799C131.317 28.2799 131.246 28.3516 131.246 28.4386V31.9553C131.246 37.5092 135.763 42.0273 141.317 42.0273H151.229C151.317 42.0273 151.388 42.0993 151.388 42.1871C151.388 42.2757 151.317 42.3474 151.229 42.3474H140.997C140.986 42.3474 140.975 42.3451 140.96 42.342C140.948 42.3397 140.938 42.3374 140.928 42.3374C138.238 42.2374 135.723 41.1125 133.846 39.1692C131.963 37.2205 130.926 34.6588 130.926 31.9553V27.946" fill="#6D8F81"/>
<path d="M151.229 42.9189L140.871 42.9066C138.034 42.787 135.403 41.6024 133.436 39.5663C131.449 37.5114 130.354 34.8082 130.354 31.9552V27.9459H130.867C131 27.7998 131.192 27.7085 131.405 27.7085V27.9459H131.498V28.8406C131.68 28.7989 131.818 28.6344 131.818 28.4385V31.9552C131.818 37.194 136.079 41.4563 141.317 41.4563H151.229C151.632 41.4563 151.959 41.7841 151.959 42.1874C151.959 42.5911 151.632 42.9189 151.229 42.9189Z" fill="#6D8F81"/>
<path d="M141.317 11.161C135.586 11.161 130.926 15.8229 130.926 21.552V28.1636V28.4527L131.857 28.4531H151.244C151.5 28.4531 151.708 28.2453 151.708 27.9884V21.552C151.708 15.8229 147.047 11.161 141.317 11.161ZM131.236 21.552C131.236 15.9931 135.758 11.4712 141.317 11.4712C146.876 11.4712 151.397 15.9931 151.397 21.552V27.9884C151.397 28.0735 151.329 28.1444 151.244 28.1444L131.236 28.1414V21.552Z" fill="#6D8F81"/>
<path d="M131.808 27.5701L150.826 27.5731V21.5523C150.826 16.3085 146.56 12.0427 141.317 12.0427C136.074 12.0427 131.808 16.3085 131.808 21.5523V27.5701ZM151.244 29.0246L130.354 29.0242V21.5523C130.354 15.5073 135.272 10.5897 141.317 10.5897C147.362 10.5897 152.279 15.5073 152.279 21.5523V27.9883C152.279 28.5596 151.814 29.0246 151.244 29.0246Z" fill="#6D8F81"/>
<path d="M120.083 8.51399C119.887 8.47412 119.69 8.45418 119.494 8.45418C118.048 8.45418 116.795 9.48699 116.516 10.9093L111.267 37.6308C111.02 38.524 110.197 39.1504 109.265 39.1504C108.336 39.1504 107.512 38.5263 107.267 37.6442L102.015 10.9093C101.735 9.48699 100.483 8.45648 99.0366 8.45648C98.8415 8.45648 98.6429 8.47412 98.4489 8.51399C96.8058 8.83602 95.7304 10.4351 96.0536 12.0782L101.327 38.9212C101.331 38.945 101.337 38.9676 101.343 38.9871L101.349 39.0163C101.354 39.04 101.358 39.0627 101.365 39.0864L101.39 39.1792C102.34 42.7388 105.578 45.2242 109.265 45.2242C112.951 45.2242 116.189 42.7434 117.138 39.1922L117.168 39.0845C117.174 39.0626 117.177 39.0419 117.181 39.0163L117.187 38.9959C117.194 38.9695 117.199 38.945 117.205 38.9212L122.477 12.0782C122.801 10.4351 121.725 8.83602 120.083 8.51399ZM122.164 12.0188L116.89 38.8614C116.887 38.8794 116.883 38.8967 116.877 38.9166L116.869 38.9476C116.865 38.9741 116.862 38.9917 116.858 39.0048L116.83 39.1087C115.916 42.5207 112.807 44.9045 109.265 44.9045C105.723 44.9045 102.612 42.5161 101.698 39.096L101.673 39.009C101.67 38.9917 101.667 38.976 101.662 38.9542L101.652 38.9124C101.649 38.8947 101.644 38.8794 101.64 38.8595L96.3679 12.0188C96.0789 10.5478 97.0392 9.11627 98.5106 8.82721C98.6847 8.79194 98.8614 8.7766 99.0366 8.7766C100.33 8.7766 101.452 9.69861 101.701 10.9687L106.956 37.7162C107.243 38.749 108.192 39.4702 109.265 39.4702C110.341 39.4702 111.29 38.7491 111.578 37.7036L116.831 10.9687C117.08 9.69861 118.201 8.7766 119.494 8.7766C119.669 8.7766 119.847 8.79194 120.021 8.82721C121.491 9.11627 122.453 10.5478 122.164 12.0188Z" fill="#6D8F81"/>
<path d="M99.0367 9.32001C98.8891 9.32001 98.7484 9.33343 98.6188 9.35988C98.0465 9.47221 97.5546 9.79961 97.2306 10.2827C96.9063 10.7653 96.7894 11.3446 96.9013 11.9139L102.174 38.7546C102.179 38.7761 102.184 38.7979 102.188 38.8209L102.221 38.9505C103.074 42.1382 105.97 44.361 109.265 44.361C112.56 44.361 115.455 42.1436 116.305 38.9681L116.355 38.7642L121.631 11.9139C121.862 10.7373 121.093 9.59144 119.916 9.36027C119.783 9.33343 119.643 9.32001 119.494 9.32001C118.46 9.32001 117.564 10.0572 117.364 11.0732L112.102 37.8479C111.751 39.123 110.584 40.0136 109.265 40.0136C107.949 40.0136 106.784 39.1284 106.432 37.8617L106.423 37.8211L101.168 11.0736C100.969 10.0572 100.072 9.32001 99.0367 9.32001ZM109.265 45.768C105.332 45.768 101.878 43.1162 100.865 39.3189L100.84 39.2288C100.833 39.2028 100.825 39.1667 100.818 39.1303C100.809 39.0946 100.799 39.0552 100.792 39.0134L95.5204 12.183C95.336 11.2457 95.5288 10.2922 96.0629 9.49751C96.5969 8.70317 97.4074 8.16414 98.3443 7.98051C98.5613 7.93604 98.7963 7.91304 99.0367 7.91304C100.742 7.91304 102.219 9.12871 102.549 10.8044L107.796 37.5171C107.983 38.1596 108.585 38.6066 109.265 38.6066C109.947 38.6066 110.549 38.1542 110.738 37.504L115.983 10.8044C116.312 9.12795 117.789 7.91074 119.494 7.91074C119.726 7.91074 119.96 7.9345 120.19 7.98089C121.127 8.16529 121.936 8.7047 122.47 9.49943C123.003 10.2942 123.195 11.2472 123.011 12.1834L117.715 39.1261C117.71 39.1487 117.704 39.1813 117.695 39.2162L117.66 39.3408C116.65 43.1212 113.197 45.768 109.265 45.768Z" fill="#6D8F81"/>
<path d="M114.382 38.3611C114.38 38.363 114.38 38.3676 114.38 38.3676C114.379 38.3714 114.378 38.3783 114.377 38.3833C113.78 40.718 111.68 42.3481 109.265 42.3481C106.852 42.3481 104.752 40.718 104.155 38.3848C104.154 38.381 104.154 38.3783 104.154 38.3764C104.152 38.3714 104.15 38.3676 104.149 38.3611L98.8779 11.525C98.8691 11.4828 98.8779 11.4406 98.9009 11.4058C98.9255 11.3682 98.9615 11.346 99.0033 11.3371C99.0907 11.3195 99.1743 11.3793 99.1912 11.4629L104.465 38.3074C105.027 40.498 107.001 42.0284 109.265 42.0284C111.532 42.0284 113.506 40.498 114.069 38.2967L119.34 11.4629C119.357 11.3793 119.442 11.3195 119.528 11.3371C119.614 11.3529 119.671 11.4387 119.654 11.525L114.382 38.3611Z" fill="#6D8F81"/>
<path d="M99.4095 11.4132L99.4114 11.4228C99.4106 11.4198 99.4102 11.4163 99.4095 11.4132ZM109.265 42.892C106.613 42.892 104.302 41.1066 103.635 38.5461L103.61 38.4391L98.3444 11.6295C98.3073 11.452 98.3433 11.2637 98.4476 11.1062C98.5476 10.9524 98.706 10.8447 98.8908 10.8056C99.2764 10.7278 99.6468 10.975 99.7234 11.3557L104.998 38.2026C105.492 40.1229 107.249 41.485 109.265 41.485C111.283 41.485 113.041 40.1183 113.543 38.1619L118.807 11.358C118.844 11.174 118.954 11.0111 119.11 10.908C119.266 10.8041 119.453 10.7669 119.637 10.8048C119.81 10.8367 119.97 10.9405 120.077 11.0962C120.182 11.2503 120.223 11.4439 120.187 11.6272L114.883 38.6285L114.869 38.6427C114.166 41.1541 111.881 42.892 109.265 42.892Z" fill="#6D8F81"/>
<path d="M13.8125 14.2112C9.669 14.2112 6.29877 17.5814 6.29877 21.7245V31.9571C6.29877 36.0987 9.669 39.4701 13.8125 39.4701C17.956 39.4701 21.3262 36.0987 21.3262 31.9571V21.7245C21.3262 17.5814 17.956 14.2112 13.8125 14.2112ZM21.0061 31.9571C21.0061 35.9223 17.7792 39.1503 13.8125 39.1503C9.84573 39.1503 6.6185 35.9223 6.6185 31.9571V21.7245C6.6185 17.7578 9.84573 14.5309 13.8125 14.5309C17.7792 14.5309 21.0061 17.7578 21.0061 21.7245V31.9571Z" fill="#6D8F81"/>
<path d="M13.8126 15.0744C10.1457 15.0744 7.16187 18.0574 7.16187 21.7244V31.9574C7.16187 35.6239 10.1457 38.6066 13.8126 38.6066C17.4796 38.6066 20.463 35.6239 20.463 31.9574V21.7244C20.463 18.0574 17.4796 15.0744 13.8126 15.0744ZM13.8126 40.0135C9.3701 40.0135 5.75528 36.3995 5.75528 31.9574V21.7244C5.75528 17.2819 9.3701 13.6678 13.8126 13.6678C18.2551 13.6678 21.87 17.2819 21.87 21.7244V31.9574C21.87 36.3995 18.2551 40.0135 13.8126 40.0135Z" fill="#6D8F81"/>
<path d="M13.8124 8.45532C11.3194 8.45532 8.91141 9.145 6.81359 10.4554C6.74842 10.496 6.69551 10.5167 6.63072 10.5585L6.61846 10.4289V3.5815C6.61846 1.90655 5.25557 0.543274 3.58138 0.543274C1.90642 0.543274 0.543152 1.90655 0.543152 3.5815V31.9564C0.543152 39.2727 6.49616 45.2246 13.8124 45.2246C21.1287 45.2246 27.0817 39.2727 27.0817 31.9564V21.7246C27.0817 14.4083 21.1287 8.45532 13.8124 8.45532ZM26.7616 31.9564C26.7616 39.096 20.9531 44.9048 13.8124 44.9048C6.6729 44.9048 0.863268 39.096 0.863268 31.9564V3.5815C0.863268 2.0829 2.08278 0.86339 3.58138 0.86339C5.07922 0.86339 6.29872 2.0829 6.29872 3.5815V10.8771C6.29872 10.9369 6.33208 10.9909 6.38383 11.0182C6.43674 11.0469 6.49961 11.0427 6.5483 11.0093C8.69442 9.54831 11.2055 8.77505 13.8124 8.77505C20.9531 8.77505 26.7616 14.5835 26.7616 21.7246V31.9564Z" fill="#6D8F81"/>
<path d="M3.58147 1.407C2.38228 1.407 1.40698 2.3823 1.40698 3.58149V31.9564C1.40698 38.7966 6.97201 44.3612 13.8125 44.3612C20.653 44.3612 26.2181 38.7966 26.2181 31.9564V21.725C26.2181 14.8841 20.653 9.31866 13.8125 9.31866C11.3168 9.31866 8.91035 10.0586 6.85432 11.4586C6.63656 11.6082 6.35555 11.6223 6.12361 11.4951C5.89972 11.3781 5.75519 11.1397 5.75519 10.8775V3.58149C5.75519 2.3823 4.77989 1.407 3.58147 1.407ZM13.8125 45.7682C6.19607 45.7682 0 39.5721 0 31.9564V3.58149C0 1.60673 1.60671 2.20348e-05 3.58147 2.20348e-05C5.55584 2.20348e-05 7.16178 1.60673 7.16178 3.58149V9.62076C9.19021 8.50054 11.4743 7.91207 13.8125 7.91207C21.429 7.91207 27.6251 14.1085 27.6251 21.725V31.9564C27.6251 39.5721 21.429 45.7682 13.8125 45.7682Z" fill="#6D8F81"/>
<path d="M141.293 13.808C136.937 13.808 133.394 17.3515 133.394 21.7078V25.4058C133.394 25.4989 133.468 25.5737 133.561 25.5737H149.025C149.118 25.5737 149.194 25.4989 149.194 25.4058V21.7078C149.194 17.3515 145.651 13.808 141.293 13.808ZM148.858 25.2375H133.73V21.7078C133.73 17.5371 137.123 14.1442 141.293 14.1442C145.465 14.1442 148.858 17.5371 148.858 21.7078V25.2375Z" fill="#6D8F81"/>
<path d="M134.301 24.6664H148.286V21.7079C148.286 17.8523 145.149 14.7156 141.292 14.7156C137.438 14.7156 134.301 17.8523 134.301 21.7079V24.6664ZM149.025 26.1451H133.561C133.153 26.1451 132.822 25.8134 132.822 25.4059V21.7079C132.822 17.0369 136.622 13.2365 141.292 13.2365C145.965 13.2365 149.765 17.0369 149.765 21.7079V25.4059C149.765 25.8134 149.433 26.1451 149.025 26.1451Z" fill="#6D8F81"/>
<path d="M141.339 8.45531C134.023 8.45531 128.069 14.4083 128.069 21.7246V31.9553C128.069 35.3884 129.382 38.6474 131.762 41.1309C134.133 43.6048 137.315 45.0524 140.712 45.2092C140.816 45.2192 140.919 45.2246 141.019 45.2246H151.25C152.925 45.2246 154.288 43.8625 154.288 42.1875C154.288 40.5122 152.925 39.1504 151.25 39.1504H141.339C137.373 39.1504 134.146 35.9224 134.146 31.9553V31.1571H151.571C153.245 31.1571 154.608 29.7938 154.608 28.1189V21.7246C154.608 14.4083 148.655 8.45531 141.339 8.45531ZM154.288 28.1189C154.288 29.6175 153.068 30.837 151.571 30.837H133.985C133.897 30.837 133.827 30.9087 133.827 30.9969V31.9553C133.827 36.0988 137.196 39.4702 141.339 39.4702H151.25C152.749 39.4702 153.968 40.6885 153.968 42.1875C153.968 43.6861 152.749 44.9048 151.25 44.9048H141.019C140.929 44.9048 140.838 44.9002 140.736 44.8907C137.413 44.7373 134.307 43.3234 131.993 40.9093C129.669 38.4853 128.39 35.3056 128.39 31.9553V21.7246C128.39 14.5847 134.199 8.77505 141.339 8.77505C148.479 8.77505 154.288 14.5847 154.288 21.7246V28.1189Z" fill="#6D8F81"/>
<path d="M141.339 9.31868C134.498 9.31868 128.933 14.8841 128.933 21.7246V31.9553C128.933 35.1653 130.159 38.2116 132.385 40.5333C134.603 42.8462 137.577 44.2006 140.761 44.3478C140.871 44.3574 140.945 44.3612 141.019 44.3612H151.25C152.449 44.3612 153.424 43.3863 153.424 42.1875C153.424 40.9887 152.449 40.0138 151.25 40.0138H141.339C136.897 40.0138 133.283 36.399 133.283 31.9553V30.9969C133.283 30.6089 133.598 30.2934 133.985 30.2934H151.571C152.769 30.2934 153.744 29.3181 153.744 28.1189V21.7246C153.744 14.8841 148.18 9.31868 141.339 9.31868ZM151.25 45.7682H141.019C140.902 45.7682 140.781 45.7621 140.66 45.7502C137.145 45.5884 133.837 44.081 131.37 41.507C128.891 38.9204 127.526 35.5283 127.526 31.9553V21.7246C127.526 14.1085 133.722 7.91209 141.339 7.91209C148.955 7.91209 155.151 14.1085 155.151 21.7246V28.1189C155.151 30.0936 153.545 31.7007 151.571 31.7007H134.69V31.9553C134.69 35.623 137.673 38.6068 141.339 38.6068H151.25C153.225 38.6068 154.832 40.2135 154.832 42.1875C154.832 44.1619 153.225 45.7682 151.25 45.7682Z" fill="#6D8F81"/>
<path d="M85.1535 21.7248V42.1873C85.1535 43.863 86.5145 45.2244 88.191 45.2244C89.8648 45.2244 91.2281 43.863 91.2281 42.1873V21.7248C91.2281 14.4089 85.2751 8.45549 77.9588 8.45549C70.6425 8.45549 64.6899 14.4089 64.6899 21.7248V42.1873C64.6899 43.863 66.0528 45.2244 67.727 45.2244C69.4031 45.2244 70.764 43.863 70.764 42.1873V21.7248C70.764 17.758 73.9928 14.5312 77.9588 14.5312C81.9267 14.5312 85.1535 17.758 85.1535 21.7248ZM70.4443 21.7248V42.1873C70.4443 43.6867 69.2267 44.9046 67.727 44.9046C66.2291 44.9046 65.0096 43.6867 65.0096 42.1873V21.7248C65.0096 14.5852 70.8192 8.7756 77.9588 8.7756C85.0983 8.7756 90.9083 14.5852 90.9083 21.7248V42.1873C90.9083 43.6867 89.6885 44.9046 88.191 44.9046C86.6909 44.9046 85.4733 43.6867 85.4733 42.1873V21.7248C85.4733 17.5817 82.1011 14.2114 77.9588 14.2114C73.8164 14.2114 70.4443 17.5817 70.4443 21.7248Z" fill="#6D8F81"/>
<path d="M77.9588 13.668C82.402 13.668 86.0169 17.2824 86.0169 21.7249V42.1874C86.0169 43.3862 86.9922 44.3612 88.191 44.3612C89.3898 44.3612 90.3651 43.3862 90.3651 42.1874V21.7249C90.3651 14.884 84.7997 9.319 77.9588 9.319C71.1182 9.319 65.5532 14.884 65.5532 21.7249V42.1874C65.5532 43.3862 66.5285 44.3612 67.7269 44.3612C68.9257 44.3612 69.9006 43.3862 69.9006 42.1874V21.7249C69.9006 17.2824 73.5155 13.668 77.9588 13.668ZM88.191 45.7678C86.2166 45.7678 84.6103 44.1614 84.6103 42.1874V21.7249C84.6103 18.058 81.6261 15.0746 77.9588 15.0746C74.2914 15.0746 71.3072 18.058 71.3072 21.7249V42.1874C71.3072 44.1614 69.7013 45.7678 67.7269 45.7678C65.7526 45.7678 64.1466 44.1614 64.1466 42.1874V21.7249C64.1466 14.1085 70.3427 7.91202 77.9588 7.91202C85.5752 7.91202 91.7717 14.1085 91.7717 21.7249V42.1874C91.7717 44.1614 90.1653 45.7678 88.191 45.7678Z" fill="#6D8F81"/>
<path d="M67.8878 21.7243V42.1868C67.8878 42.2753 67.815 42.3466 67.7268 42.3466C67.6387 42.3466 67.5681 42.2753 67.5681 42.1868V21.7243C67.5681 15.9952 72.2288 11.3337 77.959 11.3337C83.6893 11.3337 88.3496 15.9952 88.3496 21.7243V42.1868C88.3496 42.2753 88.2791 42.3466 88.1909 42.3466C88.1027 42.3466 88.0299 42.2753 88.0299 42.1868V21.7243C88.0299 16.1707 83.513 11.6535 77.959 11.6535C72.4051 11.6535 67.8878 16.1707 67.8878 21.7243Z" fill="#6D8F81"/>
<path d="M88.1908 42.8904C87.8024 42.8904 87.4865 42.5748 87.4865 42.1869V21.7243C87.4865 16.4706 83.2123 12.1968 77.9589 12.1968C72.7052 12.1968 68.431 16.4706 68.431 21.7243V42.1869C68.431 42.5748 68.1151 42.8904 67.7267 42.8904C67.3395 42.8904 67.0248 42.5748 67.0248 42.1869V21.7243C67.0248 15.695 71.9296 10.7902 77.9589 10.7902C83.9879 10.7902 88.8931 15.695 88.8931 21.7243V42.1869C88.8931 42.5748 88.578 42.8904 88.1908 42.8904Z" fill="#6D8F81"/>
<path d="M237.558 28.5985C239.234 28.5985 240.595 27.2352 240.595 25.5614C240.595 23.8872 239.234 22.5239 237.558 22.5239H230.364V11.4939C230.364 9.81974 229.001 8.45647 227.326 8.45647C225.652 8.45647 224.289 9.81974 224.289 11.4939V31.9553C224.289 39.2743 230.242 45.2246 237.558 45.2246C239.234 45.2246 240.595 43.8636 240.595 42.1871C240.595 40.5133 239.234 39.15 237.558 39.15C233.591 39.15 230.364 35.9232 230.364 31.9553V28.5985H237.558ZM237.558 39.4698C239.057 39.4698 240.276 40.6897 240.276 42.1871C240.276 43.6857 239.057 44.9048 237.558 44.9048C230.419 44.9048 224.609 39.0975 224.609 31.9553V11.4939C224.609 9.99647 225.828 8.7762 227.326 8.7762C228.825 8.7762 230.044 9.99647 230.044 11.4939V22.685C230.044 22.7735 230.117 22.8441 230.204 22.8441H237.558C239.057 22.8441 240.276 24.0636 240.276 25.5614C240.276 27.0612 239.057 28.2787 237.558 28.2787H230.204C230.117 28.2787 230.044 28.3508 230.044 28.4398V31.9553C230.044 36.0995 233.414 39.4698 237.558 39.4698Z" fill="#6D8F81"/>
<path d="M227.326 9.31984C226.127 9.31984 225.152 10.2951 225.152 11.4939V31.9553C225.152 38.7962 230.717 44.3612 237.558 44.3612C238.757 44.3612 239.732 43.3859 239.732 42.1871C239.732 40.9883 238.757 40.0138 237.558 40.0138C233.115 40.0138 229.501 36.3986 229.501 31.9553V28.4398C229.501 28.0514 229.816 27.7351 230.204 27.7351H237.558C238.757 27.7351 239.732 26.7602 239.732 25.5614C239.732 24.3626 238.757 23.3877 237.558 23.3877H230.204C229.816 23.3877 229.501 23.0726 229.501 22.685V11.4939C229.501 10.2951 228.525 9.31984 227.326 9.31984ZM237.558 45.7682C229.942 45.7682 223.745 39.5718 223.745 31.9553V11.4939C223.745 9.51958 225.352 7.91325 227.326 7.91325C229.301 7.91325 230.908 9.51958 230.908 11.4939V21.9807H237.558C239.532 21.9807 241.139 23.5871 241.139 25.5614C241.139 27.5358 239.532 29.1421 237.558 29.1421H230.908V31.9553C230.908 35.6226 233.891 38.6068 237.558 38.6068C239.532 38.6068 241.139 40.2132 241.139 42.1871C241.139 44.1619 239.532 45.7682 237.558 45.7682Z" fill="#6D8F81"/>
<path d="M237.558 42.0285C237.646 42.0285 237.718 42.0995 237.718 42.1876C237.718 42.2762 237.646 42.3487 237.558 42.3487C231.829 42.3487 227.166 37.6857 227.166 31.9558V11.4941C227.166 11.4059 227.239 11.3327 227.326 11.3327C227.416 11.3327 227.486 11.4059 227.486 11.4941V25.2414C227.486 25.3292 227.558 25.4032 227.647 25.4032H237.558C237.646 25.4032 237.718 25.4726 237.718 25.5615C237.718 25.649 237.646 25.7229 237.558 25.7229H227.647C227.558 25.7229 227.486 25.7927 227.486 25.8817V31.9558C227.486 37.5094 232.004 42.0285 237.558 42.0285Z" fill="#6D8F81"/>
<path d="M237.558 42.8923C231.528 42.8923 226.622 37.9859 226.622 31.9558V11.4941C226.622 11.1053 226.938 10.7894 227.326 10.7894C227.713 10.7894 228.029 11.1053 228.029 11.4941V24.8596H237.558C237.946 24.8596 238.262 25.1743 238.262 25.5615C238.262 25.9503 237.946 26.2666 237.558 26.2666H228.029V31.9558C228.029 37.2103 232.304 41.4849 237.558 41.4849C237.946 41.4849 238.262 41.8 238.262 42.1876C238.262 42.576 237.946 42.8923 237.558 42.8923Z" fill="#6D8F81"/>
<path d="M259.399 8.45106C252.082 8.45106 246.13 14.4041 246.13 21.7204V31.9522C246.13 39.2685 252.082 45.2192 259.399 45.2192C266.715 45.2192 272.667 39.2685 272.667 31.9522V21.7204C272.667 14.4041 266.715 8.45106 259.399 8.45106ZM272.348 31.9522C272.348 39.0914 266.539 44.8994 259.399 44.8994C252.258 44.8994 246.45 39.0914 246.45 31.9522V21.7204C246.45 14.5808 252.258 8.7708 259.399 8.7708C266.539 8.7708 272.348 14.5808 272.348 21.7204V31.9522Z" fill="#6D8F81"/>
<path d="M259.399 9.31423C252.559 9.31423 246.994 14.8796 246.994 21.7202V31.9524C246.994 38.7917 252.559 44.3556 259.399 44.3556C266.24 44.3556 271.805 38.7917 271.805 31.9524V21.7202C271.805 14.8796 266.24 9.31423 259.399 9.31423ZM259.399 45.7626C251.783 45.7626 245.587 39.5673 245.587 31.9524V21.7202C245.587 14.1041 251.783 7.90764 259.399 7.90764C267.015 7.90764 273.211 14.1041 273.211 21.7202V31.9524C273.211 39.5673 267.015 45.7626 259.399 45.7626Z" fill="#6D8F81"/>
<path d="M259.399 14.2056C255.255 14.2056 251.884 17.5759 251.884 21.7201V31.9523C251.884 36.0947 255.255 39.4649 259.399 39.4649C263.543 39.4649 266.913 36.0947 266.913 31.9523V21.7201C266.913 17.5759 263.543 14.2056 259.399 14.2056ZM266.593 31.9523C266.593 35.9183 263.366 39.1448 259.399 39.1448C255.432 39.1448 252.205 35.9183 252.205 31.9523V21.7201C252.205 17.7522 255.432 14.5254 259.399 14.5254C263.366 14.5254 266.593 17.7522 266.593 21.7201V31.9523Z" fill="#6D8F81"/>
<path d="M259.399 15.0689C255.732 15.0689 252.748 18.0527 252.748 21.72V31.9523C252.748 35.6188 255.732 38.6011 259.399 38.6011C263.066 38.6011 266.05 35.6188 266.05 31.9523V21.72C266.05 18.0527 263.066 15.0689 259.399 15.0689ZM259.399 40.0085C254.956 40.0085 251.34 36.3944 251.34 31.9523V21.72C251.34 17.2768 254.956 13.6623 259.399 13.6623C263.842 13.6623 267.457 17.2768 267.457 21.72V31.9523C267.457 36.3944 263.842 40.0085 259.399 40.0085Z" fill="#6D8F81"/>
<path d="M259.399 11.3438C253.619 11.3438 248.915 16.047 248.915 21.8283V31.8431C248.915 37.6221 253.619 42.3264 259.399 42.3264C265.179 42.3264 269.883 37.6221 269.883 31.8431V21.8283C269.883 16.047 265.179 11.3438 259.399 11.3438ZM269.57 31.8431C269.57 37.4495 265.007 42.0136 259.399 42.0136C253.79 42.0136 249.228 37.4495 249.228 31.8431V21.8283C249.228 16.2195 253.79 11.6566 259.399 11.6566C265.007 11.6566 269.57 16.2195 269.57 21.8283V31.8431Z" fill="#6D8F81"/>
<path d="M259.399 12.2C254.09 12.2 249.771 16.5191 249.771 21.828V31.8429C249.771 37.1514 254.09 41.4701 259.399 41.4701C264.708 41.4701 269.026 37.1514 269.026 31.8429V21.828C269.026 16.5191 264.708 12.2 259.399 12.2ZM259.399 42.8702C253.318 42.8702 248.371 37.9235 248.371 31.8429V21.828C248.371 15.7473 253.318 10.8003 259.399 10.8003C265.479 10.8003 270.426 15.7473 270.426 21.828V31.8429C270.426 37.9235 265.479 42.8702 259.399 42.8702Z" fill="#6D8F81"/>
<path d="M13.813 11.1896C8.03292 11.1896 3.32855 15.8928 3.32855 21.674V31.6889C3.32855 37.4678 8.03292 42.1718 13.813 42.1718C19.5931 42.1718 24.2963 37.4678 24.2963 31.6889V21.674C24.2963 15.8928 19.5931 11.1896 13.813 11.1896ZM23.9835 31.6889C23.9835 37.2953 19.4206 41.8594 13.813 41.8594C8.20428 41.8594 3.64138 37.2953 3.64138 31.6889V21.674C3.64138 16.0653 8.20428 11.5024 13.813 11.5024C19.4206 11.5024 23.9835 16.0653 23.9835 21.674V31.6889Z" fill="#6D8F81"/>
<path d="M13.8129 12.0458C8.50394 12.0458 4.18448 16.3648 4.18448 21.6738V31.6886C4.18448 36.9972 8.50394 41.3159 13.8129 41.3159C19.1211 41.3159 23.4398 36.9972 23.4398 31.6886V21.6738C23.4398 16.3648 19.1211 12.0458 13.8129 12.0458ZM13.8129 42.7156C7.73221 42.7156 2.78479 37.7689 2.78479 31.6886V21.6738C2.78479 15.5931 7.73221 10.6461 13.8129 10.6461C19.8932 10.6461 24.8398 15.5931 24.8398 21.6738V31.6886C24.8398 37.7689 19.8932 42.7156 13.8129 42.7156Z" fill="#6D8F81"/>
<path d="M3.32965 21.403V3.80621C3.32965 3.49223 3.40172 3.42169 3.48952 3.42169C3.57808 3.42169 3.64862 3.49223 3.64862 3.58156V21.3976" fill="#6D8F81"/>
<path d="M3.87315 21.4028H2.78629V3.806C2.78629 2.94495 3.32454 2.87824 3.48939 2.87824C3.87698 2.87824 4.19211 3.19337 4.19211 3.58134V21.3974L3.87315 21.4028Z" fill="#6D8F81"/>
<path d="M35.9465 28.5117C35.8584 28.5117 35.7878 28.5833 35.7878 28.6704V32.187C35.7878 37.741 40.3047 42.2594 45.8586 42.2594H55.7707C55.8593 42.2594 55.9298 42.3311 55.9298 42.4193C55.9298 42.5074 55.8593 42.5791 55.7707 42.5791H45.5389C45.5278 42.5791 45.5171 42.5768 45.5013 42.5738C45.4902 42.5715 45.4795 42.5692 45.4703 42.5692C42.7794 42.4691 40.2652 41.3443 38.3882 39.401C36.5044 37.4523 35.4677 34.8906 35.4677 32.187V28.1777" fill="#6D8F81"/>
<path d="M55.7708 43.1506L45.4128 43.1383C42.5755 43.0187 39.944 41.8341 37.9773 39.798C35.9906 37.7431 34.8961 35.0399 34.8961 32.1869V28.1776H35.4083C35.5417 28.0315 35.7338 27.9403 35.9466 27.9403V28.1776H36.0393V29.0724C36.2222 29.0306 36.3595 28.8661 36.3595 28.6702V32.1869C36.3595 37.4257 40.6206 41.6884 45.8587 41.6884H55.7708C56.1737 41.6884 56.5015 42.0162 56.5015 42.4195C56.5015 42.8228 56.1737 43.1506 55.7708 43.1506Z" fill="#6D8F81"/>
<path d="M45.8586 11.3929C40.1284 11.3929 35.4677 16.0547 35.4677 21.7838V28.3954V28.6845L36.3985 28.6849H55.7853C56.0418 28.6849 56.2496 28.4771 56.2496 28.2206V21.7838C56.2496 16.0547 51.5893 11.3929 45.8586 11.3929ZM35.7779 21.7838C35.7779 16.2249 40.2994 11.703 45.8586 11.703C51.4179 11.703 55.9394 16.2249 55.9394 21.7838V28.2206C55.9394 28.3053 55.8708 28.3763 55.7853 28.3763L35.7779 28.3732V21.7838Z" fill="#6D8F81"/>
<path d="M36.3495 27.8019L55.3678 27.8049V21.7841C55.3678 16.5403 51.102 12.2745 45.8587 12.2745C40.6153 12.2745 36.3495 16.5403 36.3495 21.7841V27.8019ZM55.7853 29.2564L34.8961 29.256V21.7841C34.8961 15.739 39.814 10.8215 45.8587 10.8215C51.9033 10.8215 56.8212 15.739 56.8212 21.7841V28.2205C56.8212 28.7917 56.3565 29.2564 55.7853 29.2564Z" fill="#6D8F81"/>
<path d="M45.8523 14.4444C41.5827 14.4444 38.1097 17.9182 38.1097 22.1882V25.8133C38.1097 25.9042 38.1821 25.9778 38.273 25.9778H53.4319C53.5224 25.9778 53.5979 25.9042 53.5979 25.8133V22.1882C53.5979 17.9182 50.1242 14.4444 45.8523 14.4444ZM53.2682 25.6485H38.439V22.1882C38.439 18.0999 41.7648 14.7738 45.8523 14.7738C49.9421 14.7738 53.2682 18.0999 53.2682 22.1882V25.6485Z" fill="#6D8F81"/>
<path d="M38.9826 25.1047H52.725V22.188C52.725 18.3996 49.6419 15.3172 45.8522 15.3172C42.0645 15.3172 38.9826 18.3996 38.9826 22.188V25.1047ZM53.4319 26.5213H38.273C37.8835 26.5213 37.5664 26.2035 37.5664 25.8136V22.188C37.5664 17.6186 41.2836 13.9011 45.8522 13.9011C50.4232 13.9011 54.1415 17.6186 54.1415 22.188V25.8136C54.1415 26.2035 53.8233 26.5213 53.4319 26.5213Z" fill="#6D8F81"/>
<path d="M45.8803 8.68728C38.5644 8.68728 32.611 14.6403 32.611 21.9566V32.1869C32.611 35.62 33.9236 38.879 36.3036 41.3629C38.6744 43.8368 41.8571 45.284 45.2538 45.4412C45.3577 45.4512 45.4612 45.4565 45.5605 45.4565H55.7924C57.4665 45.4565 58.8298 44.0944 58.8298 42.4195C58.8298 40.7441 57.4665 39.3824 55.7924 39.3824H45.8803C41.9146 39.3824 38.6878 36.1544 38.6878 32.1869V31.3887H56.1125C57.7863 31.3887 59.1495 30.0258 59.1495 28.3508V21.9566C59.1495 14.6403 53.1965 8.68728 45.8803 8.68728ZM58.8298 28.3508C58.8298 29.8494 57.6099 31.0686 56.1125 31.0686H38.5268C38.4386 31.0686 38.3681 31.1406 38.3681 31.2284V32.1869C38.3681 36.3307 41.7379 39.7021 45.8803 39.7021H55.7924C57.2902 39.7021 58.5097 40.9205 58.5097 42.4195C58.5097 43.9181 57.2902 45.1368 55.7924 45.1368H45.5605C45.47 45.1368 45.3796 45.1322 45.278 45.1226C41.9541 44.9689 38.8488 43.5554 36.5348 41.1413C34.21 38.7172 32.9311 35.5375 32.9311 32.1869V21.9566C32.9311 14.8166 38.7407 9.00701 45.8803 9.00701C53.0202 9.00701 58.8298 14.8166 58.8298 21.9566V28.3508Z" fill="#6D8F81"/>
<path d="M45.8804 9.5505C39.0399 9.5505 33.4748 15.1159 33.4748 21.9564V32.1871C33.4748 35.3971 34.7009 38.4434 36.9271 40.7651C39.1442 43.078 42.1187 44.4324 45.3034 44.5796C45.4131 44.5892 45.4871 44.5931 45.5607 44.5931H55.7925C56.9909 44.5931 57.9662 43.6181 57.9662 42.4193C57.9662 41.2205 56.9909 40.2456 55.7925 40.2456H45.8804C41.4386 40.2456 37.8246 36.6308 37.8246 32.1871V31.2287C37.8246 30.8407 38.1397 30.5252 38.5269 30.5252H56.1126C57.311 30.5252 58.2863 29.5499 58.2863 28.3507V21.9564C58.2863 15.1159 52.7213 9.5505 45.8804 9.5505ZM55.7925 46H45.5607C45.4445 46 45.323 45.9939 45.2014 45.982C41.6871 45.8202 38.3782 44.3128 35.9116 41.7388C33.4327 39.1522 32.0679 35.7601 32.0679 32.1871V21.9564C32.0679 14.3404 38.2639 8.1439 45.8804 8.1439C53.4969 8.1439 59.6929 14.3404 59.6929 21.9564V28.3507C59.6929 30.3255 58.087 31.9326 56.1126 31.9326H39.2312V32.1871C39.2312 35.8548 42.2142 38.8386 45.8804 38.8386H55.7925C57.7669 38.8386 59.3732 40.4453 59.3732 42.4193C59.3732 44.3937 57.7669 46 55.7925 46Z" fill="#6D8F81"/>
<path d="M180.606 21.7263V42.1892C180.606 43.8645 181.967 45.2263 183.644 45.2263C185.318 45.2263 186.681 43.8645 186.681 42.1892V21.7263C186.681 14.4104 180.728 8.45699 173.411 8.45699C166.095 8.45699 160.143 14.4104 160.143 21.7263V42.1892C160.143 43.8645 161.506 45.2263 163.18 45.2263C164.856 45.2263 166.217 43.8645 166.217 42.1892V21.7263C166.217 17.7595 169.446 14.5327 173.411 14.5327C177.38 14.5327 180.606 17.7595 180.606 21.7263ZM165.897 21.7263V42.1892C165.897 43.6882 164.68 44.9065 163.18 44.9065C161.682 44.9065 160.462 43.6882 160.462 42.1892V21.7263C160.462 14.5867 166.272 8.77711 173.411 8.77711C180.551 8.77711 186.362 14.5867 186.362 21.7263V42.1892C186.362 43.6882 185.141 44.9065 183.644 44.9065C182.144 44.9065 180.926 43.6882 180.926 42.1892V21.7263C180.926 17.5832 177.554 14.213 173.411 14.213C169.27 14.213 165.897 17.5832 165.897 21.7263Z" fill="#6D8F81"/>
<path d="M173.411 13.6697C177.855 13.6697 181.47 17.2837 181.47 21.7262V42.1891C181.47 43.3879 182.445 44.3629 183.644 44.3629C184.842 44.3629 185.818 43.3879 185.818 42.1891V21.7262C185.818 14.8857 180.253 9.32068 173.411 9.32068C166.571 9.32068 161.006 14.8857 161.006 21.7262V42.1891C161.006 43.3879 161.981 44.3629 163.18 44.3629C164.378 44.3629 165.353 43.3879 165.353 42.1891V21.7262C165.353 17.2837 168.968 13.6697 173.411 13.6697ZM183.644 45.7698C181.669 45.7698 180.063 44.1635 180.063 42.1891V21.7262C180.063 18.0593 177.079 15.0763 173.411 15.0763C169.744 15.0763 166.76 18.0593 166.76 21.7262V42.1891C166.76 44.1635 165.154 45.7698 163.18 45.7698C161.206 45.7698 159.599 44.1635 159.599 42.1891V21.7262C159.599 14.1098 165.795 7.91371 173.411 7.91371C181.028 7.91371 187.225 14.1098 187.225 21.7262V42.1891C187.225 44.1635 185.618 45.7698 183.644 45.7698Z" fill="#6D8F81"/>
<path d="M163.341 21.7259V42.1888C163.341 42.2766 163.268 42.3487 163.18 42.3487C163.092 42.3487 163.021 42.2766 163.021 42.1888V21.7259C163.021 15.9968 167.682 11.3354 173.412 11.3354C179.142 11.3354 183.802 15.9968 183.802 21.7259V42.1888C183.802 42.2766 183.732 42.3487 183.644 42.3487C183.556 42.3487 183.483 42.2766 183.483 42.1888V21.7259C183.483 16.1724 178.966 11.6551 173.412 11.6551C167.858 11.6551 163.341 16.1724 163.341 21.7259Z" fill="#6D8F81"/>
<path d="M183.644 42.8923C183.255 42.8923 182.939 42.5768 182.939 42.1888V21.7259C182.939 16.4725 178.666 12.1983 173.412 12.1983C168.158 12.1983 163.884 16.4725 163.884 21.7259V42.1888C163.884 42.5768 163.568 42.8923 163.18 42.8923C162.793 42.8923 162.477 42.5768 162.477 42.1888V21.7259C162.477 15.697 167.383 10.7921 173.412 10.7921C179.441 10.7921 184.346 15.697 184.346 21.7259V42.1888C184.346 42.5768 184.031 42.8923 183.644 42.8923Z" fill="#6D8F81"/>
<path d="M198.289 32.0395V11.577C198.289 9.90131 196.928 8.53957 195.252 8.53957C193.578 8.53957 192.215 9.90131 192.215 11.577V32.0395C192.215 39.3554 198.168 45.3088 205.485 45.3088C212.801 45.3088 218.753 39.3554 218.753 32.0395V11.577C218.753 9.90131 217.39 8.53957 215.716 8.53957C214.04 8.53957 212.679 9.90131 212.679 11.577V32.0395C212.679 36.0071 209.45 39.2339 205.485 39.2339C201.516 39.2339 198.289 36.0071 198.289 32.0395ZM212.999 32.0395V11.577C212.999 10.0777 214.216 8.85931 215.716 8.85931C217.214 8.85931 218.433 10.0777 218.433 11.577V32.0395C218.433 39.1791 212.624 44.9887 205.485 44.9887C198.345 44.9887 192.535 39.1791 192.535 32.0395V11.577C192.535 10.0777 193.754 8.85931 195.252 8.85931C196.752 8.85931 197.97 10.0777 197.97 11.577V32.0395C197.97 36.1834 201.342 39.5536 205.485 39.5536C209.626 39.5536 212.999 36.1834 212.999 32.0395Z" fill="#6D8F81"/>
<path d="M195.252 9.40276C194.053 9.40276 193.078 10.3781 193.078 11.5772V32.0394C193.078 38.8803 198.644 44.4453 205.484 44.4453C212.325 44.4453 217.89 38.8803 217.89 32.0394V11.5772C217.89 10.3781 216.915 9.40276 215.716 9.40276C214.517 9.40276 213.542 10.3781 213.542 11.5772V32.0394C213.542 36.4823 209.928 40.0971 205.484 40.0971C201.041 40.0971 197.426 36.4823 197.426 32.0394V11.5772C197.426 10.3781 196.451 9.40276 195.252 9.40276ZM205.484 45.8527C197.868 45.8527 191.671 39.6562 191.671 32.0394V11.5772C191.671 9.60249 193.278 7.99616 195.252 7.99616C197.226 7.99616 198.833 9.60249 198.833 11.5772V32.0394C198.833 35.7067 201.817 38.6901 205.484 38.6901C209.152 38.6901 212.135 35.7067 212.135 32.0394V11.5772C212.135 9.60249 213.742 7.99616 215.716 7.99616C217.69 7.99616 219.297 9.60249 219.297 11.5772V32.0394C219.297 39.6562 213.101 45.8527 205.484 45.8527Z" fill="#6D8F81"/>
<path d="M215.555 32.0403V11.5774C215.555 11.4892 215.628 11.4175 215.716 11.4175C215.804 11.4175 215.875 11.4892 215.875 11.5774V32.0403C215.875 37.769 211.215 42.4312 205.483 42.4312C199.754 42.4312 195.093 37.769 195.093 32.0403V11.5774C195.093 11.4892 195.164 11.4175 195.252 11.4175C195.34 11.4175 195.413 11.4892 195.413 11.5774V32.0403C195.413 37.5934 199.93 42.1115 205.483 42.1115C211.038 42.1115 215.555 37.5934 215.555 32.0403Z" fill="#6D8F81"/>
<path d="M205.484 42.9747C199.455 42.9747 194.549 38.0694 194.549 32.0405V11.5776C194.549 11.1896 194.865 10.8741 195.252 10.8741C195.641 10.8741 195.957 11.1896 195.957 11.5776V32.0405C195.957 37.2939 200.231 41.5677 205.484 41.5677C210.737 41.5677 215.012 37.2939 215.012 32.0405V11.5776C215.012 11.1896 215.328 10.8741 215.716 10.8741C216.103 10.8741 216.418 11.1896 216.418 11.5776V32.0405C216.418 38.0694 211.513 42.9747 205.484 42.9747Z" fill="#6D8F81"/>
</svg>
